<?xml version="1.0" encoding="iso-8859-1"?>
<svg version="1.1" id="Capa_1" xmlns="http://www.w3.org/2000/svg" xmlns:xlink="http://www.w3.org/1999/xlink" x="0px" y="0px"
	 viewBox="0 0 512 512" style="enable-background:new 0 0 512 512;" xml:space="preserve">
<circle style="fill:#B9EAFF;" cx="256" cy="256" r="256"/>
<path style="fill:#35CCFF;" d="M512,256c0-6.778-0.269-13.494-0.786-20.139L386.337,110.984L146.333,99.667l-34.14,287.463
	l124.124,124.124C242.814,511.748,249.378,512,256,512C397.385,512,512,397.385,512,256z"/>
<path style="fill:#A70014;" d="M254.92,59.95c-107.546,0-194.729,87.183-194.729,194.729s87.183,194.729,194.729,194.729
	s194.729-87.183,194.729-194.729S362.466,59.95,254.92,59.95z M254.92,398.451c-57.841,0-104.73-64.369-104.73-143.772
	s46.889-143.772,104.73-143.772s104.73,64.369,104.73,143.772C359.651,334.083,312.761,398.451,254.92,398.451z"/>
<path style="fill:#680314;" d="M449.649,254.679c0-107.296-86.781-194.316-193.982-194.72v50.961
	c57.497,0.552,103.984,64.698,103.984,143.759c0,79.06-46.487,143.207-103.984,143.759v50.96
	C362.868,448.995,449.649,361.975,449.649,254.679z"/>
<path style="fill:#FF1B2D;" d="M306.223,423.344c-84.468,0-152.942-75.514-152.942-168.664S221.756,86.017,306.224,86.017
	c29.375,0,56.814,9.135,80.114,24.967C351.701,79.289,305.57,59.95,254.92,59.95c-107.546,0-194.729,87.183-194.729,194.729
	s87.183,194.729,194.729,194.729c50.641,0,96.765-19.333,131.4-51.018C363.024,414.214,335.591,423.345,306.223,423.344z"/>
<g>
	<path style="fill:#CC1127;" d="M306.224,86.017c29.375,0,56.814,9.135,80.114,24.967c-34.466-31.539-80.315-50.836-130.671-51.025
		v35.504C271.494,89.351,288.504,86.017,306.224,86.017z"/>
	<path style="fill:#CC1127;" d="M306.223,423.344c-17.719,0-34.729-3.334-50.556-9.446v35.5
		c50.347-0.189,96.19-19.48,130.654-51.009C363.024,414.214,335.591,423.344,306.223,423.344z"/>
</g>
</svg>
